<mxfile host="app.diagrams.net" modified="2021-11-16T20:28:28.188Z" agent="5.0 (Macintosh; Intel Mac OS X 10_15_7) AppleWebKit/605.1.15 (KHTML, like Gecko) Version/15.1 Safari/605.1.15" etag="BLWedBTm_WmGVsXufqCr" version="15.7.4" type="github">
  <diagram id="R2lEEEUBdFMjLlhIrx00" name="Page-1">
    <mxGraphModel dx="2066" dy="1928" grid="1" gridSize="10" guides="1" tooltips="1" connect="1" arrows="1" fold="1" page="1" pageScale="1" pageWidth="850" pageHeight="1100" math="0" shadow="0" extFonts="Permanent Marker^https://fonts.googleapis.com/css?family=Permanent+Marker">
      <root>
        <mxCell id="0" />
        <mxCell id="1" parent="0" />
        <mxCell id="D_9kCcDNiqpMiPCQ59RG-1" value="Product" style="rounded=0;whiteSpace=wrap;html=1;fillColor=#dae8fc;strokeColor=#6c8ebf;" parent="1" vertex="1">
          <mxGeometry x="790" y="230" width="120" height="60" as="geometry" />
        </mxCell>
        <mxCell id="D_9kCcDNiqpMiPCQ59RG-3" value="Klant&amp;nbsp;" style="rounded=0;whiteSpace=wrap;html=1;fillColor=#dae8fc;strokeColor=#6c8ebf;" parent="1" vertex="1">
          <mxGeometry x="1100" y="-20" width="120" height="60" as="geometry" />
        </mxCell>
        <mxCell id="D_9kCcDNiqpMiPCQ59RG-7" value="Order" style="rounded=0;whiteSpace=wrap;html=1;fillColor=#dae8fc;strokeColor=#6c8ebf;" parent="1" vertex="1">
          <mxGeometry x="1100" y="230" width="120" height="60" as="geometry" />
        </mxCell>
        <mxCell id="D_9kCcDNiqpMiPCQ59RG-8" value="Medewerker" style="rounded=0;whiteSpace=wrap;html=1;fillColor=#dae8fc;strokeColor=#6c8ebf;" parent="1" vertex="1">
          <mxGeometry x="462.5" y="480" width="120" height="60" as="geometry" />
        </mxCell>
        <mxCell id="D_9kCcDNiqpMiPCQ59RG-9" value="Locatie" style="rounded=0;whiteSpace=wrap;html=1;fillColor=#dae8fc;strokeColor=#6c8ebf;" parent="1" vertex="1">
          <mxGeometry x="1145" y="480" width="120" height="60" as="geometry" />
        </mxCell>
        <mxCell id="D_9kCcDNiqpMiPCQ59RG-10" value="Afdeling" style="rounded=0;whiteSpace=wrap;html=1;fillColor=#dae8fc;strokeColor=#6c8ebf;" parent="1" vertex="1">
          <mxGeometry x="790" y="480" width="120" height="60" as="geometry" />
        </mxCell>
        <mxCell id="YaDthRep-Ik-A5Df_dVy-1" value="Naam" style="ellipse;whiteSpace=wrap;html=1;rounded=0;" parent="1" vertex="1">
          <mxGeometry x="340" y="530" width="90" height="40" as="geometry" />
        </mxCell>
        <mxCell id="YaDthRep-Ik-A5Df_dVy-3" value="Adres" style="ellipse;whiteSpace=wrap;html=1;rounded=0;" parent="1" vertex="1">
          <mxGeometry x="477.5" y="380" width="105" height="30" as="geometry" />
        </mxCell>
        <mxCell id="YaDthRep-Ik-A5Df_dVy-5" value="Telefoon Nummer" style="ellipse;whiteSpace=wrap;html=1;rounded=0;" parent="1" vertex="1">
          <mxGeometry x="340" y="460" width="90" height="40" as="geometry" />
        </mxCell>
        <mxCell id="YaDthRep-Ik-A5Df_dVy-8" value="Werkt bij" style="rhombus;whiteSpace=wrap;html=1;rounded=0;" parent="1" vertex="1">
          <mxGeometry x="640" y="470" width="80" height="80" as="geometry" />
        </mxCell>
        <mxCell id="YaDthRep-Ik-A5Df_dVy-12" value="Id" style="ellipse;whiteSpace=wrap;html=1;" parent="1" vertex="1">
          <mxGeometry x="590" y="380" width="100" height="35" as="geometry" />
        </mxCell>
        <mxCell id="YaDthRep-Ik-A5Df_dVy-13" value="Uitleg" style="ellipse;whiteSpace=wrap;html=1;rounded=0;" parent="1" vertex="1">
          <mxGeometry x="920" y="592.5" width="110" height="40" as="geometry" />
        </mxCell>
        <mxCell id="YaDthRep-Ik-A5Df_dVy-18" value="Naam" style="ellipse;whiteSpace=wrap;html=1;rounded=0;" parent="1" vertex="1">
          <mxGeometry x="656.8800000000001" y="565" width="123.12" height="45" as="geometry" />
        </mxCell>
        <mxCell id="YaDthRep-Ik-A5Df_dVy-20" value="Id&lt;br&gt;&amp;lt;Preimary key&amp;gt;" style="ellipse;whiteSpace=wrap;html=1;rounded=0;" parent="1" vertex="1">
          <mxGeometry x="920" y="540" width="120" height="50" as="geometry" />
        </mxCell>
        <mxCell id="YaDthRep-Ik-A5Df_dVy-23" value="Locatie&lt;br&gt;&amp;lt;Foreign Key&amp;gt;" style="ellipse;whiteSpace=wrap;html=1;" parent="1" vertex="1">
          <mxGeometry x="730" y="610" width="120" height="50" as="geometry" />
        </mxCell>
        <mxCell id="YaDthRep-Ik-A5Df_dVy-24" value="" style="endArrow=none;html=1;rounded=0;entryX=1;entryY=0.5;entryDx=0;entryDy=0;exitX=0;exitY=0.5;exitDx=0;exitDy=0;" parent="1" source="YaDthRep-Ik-A5Df_dVy-8" target="D_9kCcDNiqpMiPCQ59RG-8" edge="1">
          <mxGeometry width="50" height="50" relative="1" as="geometry">
            <mxPoint x="810" y="360" as="sourcePoint" />
            <mxPoint x="850" y="280" as="targetPoint" />
          </mxGeometry>
        </mxCell>
        <mxCell id="YaDthRep-Ik-A5Df_dVy-27" value="Afdeling" style="ellipse;whiteSpace=wrap;html=1;" parent="1" vertex="1">
          <mxGeometry x="363.75" y="390" width="106.25" height="40" as="geometry" />
        </mxCell>
        <mxCell id="YaDthRep-Ik-A5Df_dVy-28" value="" style="endArrow=none;html=1;rounded=0;entryX=0.5;entryY=1;entryDx=0;entryDy=0;exitX=0;exitY=0;exitDx=0;exitDy=0;" parent="1" source="D_9kCcDNiqpMiPCQ59RG-8" target="YaDthRep-Ik-A5Df_dVy-27" edge="1">
          <mxGeometry width="50" height="50" relative="1" as="geometry">
            <mxPoint x="260" y="640" as="sourcePoint" />
            <mxPoint x="310" y="590" as="targetPoint" />
          </mxGeometry>
        </mxCell>
        <mxCell id="YaDthRep-Ik-A5Df_dVy-29" value="" style="endArrow=none;html=1;rounded=0;entryX=1;entryY=1;entryDx=0;entryDy=0;exitX=0;exitY=0.5;exitDx=0;exitDy=0;" parent="1" source="D_9kCcDNiqpMiPCQ59RG-8" target="YaDthRep-Ik-A5Df_dVy-5" edge="1">
          <mxGeometry width="50" height="50" relative="1" as="geometry">
            <mxPoint x="480" y="480" as="sourcePoint" />
            <mxPoint x="430" y="470" as="targetPoint" />
          </mxGeometry>
        </mxCell>
        <mxCell id="YaDthRep-Ik-A5Df_dVy-30" value="" style="endArrow=none;html=1;rounded=0;entryX=0;entryY=0.75;entryDx=0;entryDy=0;exitX=1;exitY=0;exitDx=0;exitDy=0;" parent="1" source="YaDthRep-Ik-A5Df_dVy-1" target="D_9kCcDNiqpMiPCQ59RG-8" edge="1">
          <mxGeometry width="50" height="50" relative="1" as="geometry">
            <mxPoint x="699.99" y="555" as="sourcePoint" />
            <mxPoint x="589.9950000000001" y="500" as="targetPoint" />
          </mxGeometry>
        </mxCell>
        <mxCell id="YaDthRep-Ik-A5Df_dVy-31" value="" style="endArrow=none;html=1;rounded=0;entryX=1;entryY=0;entryDx=0;entryDy=0;exitX=0.5;exitY=1;exitDx=0;exitDy=0;" parent="1" source="YaDthRep-Ik-A5Df_dVy-12" target="D_9kCcDNiqpMiPCQ59RG-8" edge="1">
          <mxGeometry width="50" height="50" relative="1" as="geometry">
            <mxPoint x="500" y="500" as="sourcePoint" />
            <mxPoint x="390.0050000000001" y="445" as="targetPoint" />
          </mxGeometry>
        </mxCell>
        <mxCell id="YaDthRep-Ik-A5Df_dVy-35" value="" style="endArrow=none;html=1;rounded=0;entryX=0.5;entryY=1;entryDx=0;entryDy=0;exitX=0.5;exitY=0;exitDx=0;exitDy=0;" parent="1" source="D_9kCcDNiqpMiPCQ59RG-8" target="YaDthRep-Ik-A5Df_dVy-3" edge="1">
          <mxGeometry width="50" height="50" relative="1" as="geometry">
            <mxPoint x="510" y="510" as="sourcePoint" />
            <mxPoint x="400.0050000000001" y="455" as="targetPoint" />
          </mxGeometry>
        </mxCell>
        <mxCell id="YaDthRep-Ik-A5Df_dVy-36" value="" style="endArrow=none;html=1;rounded=0;entryX=1;entryY=0.5;entryDx=0;entryDy=0;exitX=0;exitY=0.5;exitDx=0;exitDy=0;" parent="1" source="D_9kCcDNiqpMiPCQ59RG-10" target="YaDthRep-Ik-A5Df_dVy-8" edge="1">
          <mxGeometry width="50" height="50" relative="1" as="geometry">
            <mxPoint x="860" y="350" as="sourcePoint" />
            <mxPoint x="860" y="290" as="targetPoint" />
          </mxGeometry>
        </mxCell>
        <mxCell id="YaDthRep-Ik-A5Df_dVy-37" value="" style="endArrow=none;html=1;rounded=0;entryX=0;entryY=0;entryDx=0;entryDy=0;exitX=0.75;exitY=1;exitDx=0;exitDy=0;" parent="1" source="D_9kCcDNiqpMiPCQ59RG-10" target="YaDthRep-Ik-A5Df_dVy-13" edge="1">
          <mxGeometry width="50" height="50" relative="1" as="geometry">
            <mxPoint x="870" y="360" as="sourcePoint" />
            <mxPoint x="870" y="300" as="targetPoint" />
          </mxGeometry>
        </mxCell>
        <mxCell id="YaDthRep-Ik-A5Df_dVy-38" value="" style="endArrow=none;html=1;rounded=0;entryX=0.25;entryY=1;entryDx=0;entryDy=0;exitX=0.5;exitY=0;exitDx=0;exitDy=0;" parent="1" source="YaDthRep-Ik-A5Df_dVy-23" target="D_9kCcDNiqpMiPCQ59RG-10" edge="1">
          <mxGeometry width="50" height="50" relative="1" as="geometry">
            <mxPoint x="880" y="370" as="sourcePoint" />
            <mxPoint x="880" y="310" as="targetPoint" />
          </mxGeometry>
        </mxCell>
        <mxCell id="YaDthRep-Ik-A5Df_dVy-39" value="" style="endArrow=none;html=1;rounded=0;entryX=0;entryY=1;entryDx=0;entryDy=0;exitX=1;exitY=0;exitDx=0;exitDy=0;" parent="1" source="YaDthRep-Ik-A5Df_dVy-18" target="D_9kCcDNiqpMiPCQ59RG-10" edge="1">
          <mxGeometry width="50" height="50" relative="1" as="geometry">
            <mxPoint x="890" y="380" as="sourcePoint" />
            <mxPoint x="890" y="320" as="targetPoint" />
          </mxGeometry>
        </mxCell>
        <mxCell id="YaDthRep-Ik-A5Df_dVy-40" value="" style="endArrow=none;html=1;rounded=0;entryX=0;entryY=0;entryDx=0;entryDy=0;exitX=1;exitY=1;exitDx=0;exitDy=0;" parent="1" source="D_9kCcDNiqpMiPCQ59RG-10" target="YaDthRep-Ik-A5Df_dVy-20" edge="1">
          <mxGeometry width="50" height="50" relative="1" as="geometry">
            <mxPoint x="900" y="390" as="sourcePoint" />
            <mxPoint x="900" y="330" as="targetPoint" />
          </mxGeometry>
        </mxCell>
        <mxCell id="YaDthRep-Ik-A5Df_dVy-41" value="Id&lt;br&gt;&amp;lt;Primary Key&amp;gt;" style="ellipse;whiteSpace=wrap;html=1;rounded=0;" parent="1" vertex="1">
          <mxGeometry x="1145" y="585" width="120" height="55" as="geometry" />
        </mxCell>
        <mxCell id="YaDthRep-Ik-A5Df_dVy-45" value="" style="endArrow=none;html=1;rounded=0;exitX=1;exitY=0.5;exitDx=0;exitDy=0;entryX=0;entryY=0.5;entryDx=0;entryDy=0;" parent="1" source="YaDthRep-Ik-A5Df_dVy-44" target="D_9kCcDNiqpMiPCQ59RG-9" edge="1">
          <mxGeometry width="50" height="50" relative="1" as="geometry">
            <mxPoint x="1180" y="420" as="sourcePoint" />
            <mxPoint x="1120" y="540" as="targetPoint" />
          </mxGeometry>
        </mxCell>
        <mxCell id="YaDthRep-Ik-A5Df_dVy-44" value="Staat in" style="rhombus;whiteSpace=wrap;html=1;" parent="1" vertex="1">
          <mxGeometry x="1010" y="470" width="80" height="80" as="geometry" />
        </mxCell>
        <mxCell id="YaDthRep-Ik-A5Df_dVy-46" value="" style="endArrow=none;html=1;rounded=0;exitX=1;exitY=0.5;exitDx=0;exitDy=0;" parent="1" source="D_9kCcDNiqpMiPCQ59RG-10" target="YaDthRep-Ik-A5Df_dVy-44" edge="1">
          <mxGeometry width="50" height="50" relative="1" as="geometry">
            <mxPoint x="910" y="510" as="sourcePoint" />
            <mxPoint x="990" y="510" as="targetPoint" />
          </mxGeometry>
        </mxCell>
        <mxCell id="YaDthRep-Ik-A5Df_dVy-48" value="" style="endArrow=none;html=1;rounded=0;exitX=1;exitY=0.5;exitDx=0;exitDy=0;startArrow=none;entryX=1;entryY=0.5;entryDx=0;entryDy=0;" parent="1" edge="1">
          <mxGeometry width="50" height="50" relative="1" as="geometry">
            <mxPoint x="1257.5" y="385" as="sourcePoint" />
            <mxPoint x="1257.5" y="385" as="targetPoint" />
          </mxGeometry>
        </mxCell>
        <mxCell id="YaDthRep-Ik-A5Df_dVy-52" value="" style="endArrow=none;html=1;rounded=0;entryX=0.5;entryY=0;entryDx=0;entryDy=0;exitX=0.5;exitY=1;exitDx=0;exitDy=0;" parent="1" source="D_9kCcDNiqpMiPCQ59RG-9" target="YaDthRep-Ik-A5Df_dVy-41" edge="1">
          <mxGeometry width="50" height="50" relative="1" as="geometry">
            <mxPoint x="1210" y="530" as="sourcePoint" />
            <mxPoint x="1215" y="630" as="targetPoint" />
          </mxGeometry>
        </mxCell>
        <mxCell id="YaDthRep-Ik-A5Df_dVy-53" value="" style="endArrow=none;html=1;rounded=0;exitX=0.75;exitY=1;exitDx=0;exitDy=0;" parent="1" source="D_9kCcDNiqpMiPCQ59RG-9" target="YaDthRep-Ik-A5Df_dVy-54" edge="1">
          <mxGeometry width="50" height="50" relative="1" as="geometry">
            <mxPoint x="835" y="560" as="sourcePoint" />
            <mxPoint x="1305" y="590" as="targetPoint" />
          </mxGeometry>
        </mxCell>
        <mxCell id="YaDthRep-Ik-A5Df_dVy-54" value="Stad" style="ellipse;whiteSpace=wrap;html=1;" parent="1" vertex="1">
          <mxGeometry x="1275" y="580" width="90" height="35" as="geometry" />
        </mxCell>
        <mxCell id="YaDthRep-Ik-A5Df_dVy-55" value="" style="endArrow=none;html=1;rounded=0;exitX=1;exitY=0.75;exitDx=0;exitDy=0;" parent="1" source="D_9kCcDNiqpMiPCQ59RG-9" target="YaDthRep-Ik-A5Df_dVy-56" edge="1">
          <mxGeometry width="50" height="50" relative="1" as="geometry">
            <mxPoint x="845" y="570" as="sourcePoint" />
            <mxPoint x="1325" y="530" as="targetPoint" />
          </mxGeometry>
        </mxCell>
        <mxCell id="YaDthRep-Ik-A5Df_dVy-56" value="adress" style="ellipse;whiteSpace=wrap;html=1;" parent="1" vertex="1">
          <mxGeometry x="1305" y="520" width="100" height="45" as="geometry" />
        </mxCell>
        <mxCell id="YaDthRep-Ik-A5Df_dVy-57" value="Id" style="ellipse;whiteSpace=wrap;html=1;rounded=0;" parent="1" vertex="1">
          <mxGeometry x="673.1199999999999" y="190" width="83.44" height="30" as="geometry" />
        </mxCell>
        <mxCell id="YaDthRep-Ik-A5Df_dVy-59" value="" style="endArrow=none;html=1;rounded=0;exitX=1;exitY=0.5;exitDx=0;exitDy=0;entryX=-0.008;entryY=0.117;entryDx=0;entryDy=0;entryPerimeter=0;" parent="1" source="YaDthRep-Ik-A5Df_dVy-57" target="D_9kCcDNiqpMiPCQ59RG-1" edge="1">
          <mxGeometry width="50" height="50" relative="1" as="geometry">
            <mxPoint x="900" y="335" as="sourcePoint" />
            <mxPoint x="950" y="285" as="targetPoint" />
          </mxGeometry>
        </mxCell>
        <mxCell id="YaDthRep-Ik-A5Df_dVy-60" value="Prijs" style="ellipse;whiteSpace=wrap;html=1;rounded=0;" parent="1" vertex="1">
          <mxGeometry x="700" y="150" width="90" height="30" as="geometry" />
        </mxCell>
        <mxCell id="YaDthRep-Ik-A5Df_dVy-62" value="" style="endArrow=none;html=1;rounded=0;entryX=1;entryY=1;entryDx=0;entryDy=0;exitX=0;exitY=0;exitDx=0;exitDy=0;" parent="1" source="D_9kCcDNiqpMiPCQ59RG-1" target="YaDthRep-Ik-A5Df_dVy-60" edge="1">
          <mxGeometry width="50" height="50" relative="1" as="geometry">
            <mxPoint x="900" y="305" as="sourcePoint" />
            <mxPoint x="950" y="255" as="targetPoint" />
          </mxGeometry>
        </mxCell>
        <mxCell id="YaDthRep-Ik-A5Df_dVy-64" value="" style="endArrow=none;html=1;rounded=0;entryX=0.25;entryY=0;entryDx=0;entryDy=0;exitX=0.5;exitY=1;exitDx=0;exitDy=0;" parent="1" source="YaDthRep-Ik-A5Df_dVy-65" target="D_9kCcDNiqpMiPCQ59RG-1" edge="1">
          <mxGeometry width="50" height="50" relative="1" as="geometry">
            <mxPoint x="820" y="195" as="sourcePoint" />
            <mxPoint x="960" y="265" as="targetPoint" />
          </mxGeometry>
        </mxCell>
        <mxCell id="YaDthRep-Ik-A5Df_dVy-65" value="Afdeling&lt;br&gt;&amp;lt;Foreign key&amp;gt;" style="ellipse;whiteSpace=wrap;html=1;" parent="1" vertex="1">
          <mxGeometry x="800" y="140" width="100" height="40" as="geometry" />
        </mxCell>
        <mxCell id="YaDthRep-Ik-A5Df_dVy-68" value="" style="endArrow=none;html=1;rounded=0;entryX=0;entryY=1;entryDx=0;entryDy=0;exitX=1;exitY=0;exitDx=0;exitDy=0;" parent="1" source="YaDthRep-Ik-A5Df_dVy-69" target="D_9kCcDNiqpMiPCQ59RG-1" edge="1">
          <mxGeometry width="50" height="50" relative="1" as="geometry">
            <mxPoint x="740" y="295" as="sourcePoint" />
            <mxPoint x="950" y="255" as="targetPoint" />
          </mxGeometry>
        </mxCell>
        <mxCell id="YaDthRep-Ik-A5Df_dVy-69" value="Gewicht (kg)" style="ellipse;whiteSpace=wrap;html=1;" parent="1" vertex="1">
          <mxGeometry x="705" y="300" width="90" height="40" as="geometry" />
        </mxCell>
        <mxCell id="YaDthRep-Ik-A5Df_dVy-70" value="" style="endArrow=none;html=1;rounded=0;exitX=0.5;exitY=0;exitDx=0;exitDy=0;entryX=0.5;entryY=1;entryDx=0;entryDy=0;" parent="1" source="D_9kCcDNiqpMiPCQ59RG-10" target="YaDthRep-Ik-A5Df_dVy-81" edge="1">
          <mxGeometry width="50" height="50" relative="1" as="geometry">
            <mxPoint x="1210" y="360" as="sourcePoint" />
            <mxPoint x="1020" y="400" as="targetPoint" />
          </mxGeometry>
        </mxCell>
        <mxCell id="YaDthRep-Ik-A5Df_dVy-71" value="" style="endArrow=none;html=1;rounded=0;entryX=1;entryY=1;entryDx=0;entryDy=0;exitX=0;exitY=0;exitDx=0;exitDy=0;" parent="1" source="YaDthRep-Ik-A5Df_dVy-72" target="D_9kCcDNiqpMiPCQ59RG-1" edge="1">
          <mxGeometry width="50" height="50" relative="1" as="geometry">
            <mxPoint x="930" y="325" as="sourcePoint" />
            <mxPoint x="980" y="275" as="targetPoint" />
          </mxGeometry>
        </mxCell>
        <mxCell id="YaDthRep-Ik-A5Df_dVy-72" value="Merk" style="ellipse;whiteSpace=wrap;html=1;" parent="1" vertex="1">
          <mxGeometry x="920" y="315" width="90" height="40" as="geometry" />
        </mxCell>
        <mxCell id="YaDthRep-Ik-A5Df_dVy-81" value="heeft" style="rhombus;whiteSpace=wrap;html=1;rotation=0;" parent="1" vertex="1">
          <mxGeometry x="810" y="335" width="80" height="80" as="geometry" />
        </mxCell>
        <mxCell id="YaDthRep-Ik-A5Df_dVy-82" value="" style="endArrow=none;html=1;rounded=0;exitX=0.5;exitY=0;exitDx=0;exitDy=0;entryX=0.5;entryY=1;entryDx=0;entryDy=0;" parent="1" source="YaDthRep-Ik-A5Df_dVy-81" target="D_9kCcDNiqpMiPCQ59RG-1" edge="1">
          <mxGeometry width="50" height="50" relative="1" as="geometry">
            <mxPoint x="980" y="285" as="sourcePoint" />
            <mxPoint x="1030" y="235" as="targetPoint" />
          </mxGeometry>
        </mxCell>
        <mxCell id="YaDthRep-Ik-A5Df_dVy-84" value="" style="endArrow=none;html=1;rounded=0;exitX=1;exitY=0.25;exitDx=0;exitDy=0;" parent="1" source="D_9kCcDNiqpMiPCQ59RG-1" target="YaDthRep-Ik-A5Df_dVy-85" edge="1">
          <mxGeometry width="50" height="50" relative="1" as="geometry">
            <mxPoint x="1050" y="360" as="sourcePoint" />
            <mxPoint x="890" y="190" as="targetPoint" />
          </mxGeometry>
        </mxCell>
        <mxCell id="YaDthRep-Ik-A5Df_dVy-85" value="Omschrijving&amp;nbsp;" style="ellipse;whiteSpace=wrap;html=1;" parent="1" vertex="1">
          <mxGeometry x="900" y="155" width="100" height="40" as="geometry" />
        </mxCell>
        <mxCell id="-mqdKeCDxTKGUfRNACRo-1" value="" style="endArrow=none;html=1;rounded=0;entryX=1;entryY=0.75;entryDx=0;entryDy=0;exitX=0;exitY=0.5;exitDx=0;exitDy=0;" parent="1" source="-mqdKeCDxTKGUfRNACRo-2" edge="1">
          <mxGeometry width="50" height="50" relative="1" as="geometry">
            <mxPoint x="1260" y="275" as="sourcePoint" />
            <mxPoint x="1220" y="260" as="targetPoint" />
          </mxGeometry>
        </mxCell>
        <mxCell id="-mqdKeCDxTKGUfRNACRo-2" value="Datum" style="ellipse;whiteSpace=wrap;html=1;" parent="1" vertex="1">
          <mxGeometry x="1250" y="240" width="110" height="50" as="geometry" />
        </mxCell>
        <mxCell id="-mqdKeCDxTKGUfRNACRo-3" value="" style="endArrow=none;html=1;rounded=0;entryX=1;entryY=0;entryDx=0;entryDy=0;exitX=0.5;exitY=1;exitDx=0;exitDy=0;" parent="1" source="-mqdKeCDxTKGUfRNACRo-4" target="D_9kCcDNiqpMiPCQ59RG-7" edge="1">
          <mxGeometry width="50" height="50" relative="1" as="geometry">
            <mxPoint x="1210" y="180" as="sourcePoint" />
            <mxPoint x="1170" y="165" as="targetPoint" />
          </mxGeometry>
        </mxCell>
        <mxCell id="-mqdKeCDxTKGUfRNACRo-4" value="Prijs" style="ellipse;whiteSpace=wrap;html=1;" parent="1" vertex="1">
          <mxGeometry x="1240" y="170" width="110" height="50" as="geometry" />
        </mxCell>
        <mxCell id="-mqdKeCDxTKGUfRNACRo-8" value="" style="endArrow=none;html=1;rounded=0;entryX=0.5;entryY=0;entryDx=0;entryDy=0;exitX=0.5;exitY=1;exitDx=0;exitDy=0;" parent="1" source="-mqdKeCDxTKGUfRNACRo-9" edge="1" target="D_9kCcDNiqpMiPCQ59RG-3">
          <mxGeometry width="50" height="50" relative="1" as="geometry">
            <mxPoint x="1255" y="25" as="sourcePoint" />
            <mxPoint x="1215" y="10" as="targetPoint" />
          </mxGeometry>
        </mxCell>
        <mxCell id="-mqdKeCDxTKGUfRNACRo-9" value="telefoonNummer" style="ellipse;whiteSpace=wrap;html=1;" parent="1" vertex="1">
          <mxGeometry x="1110" y="-110" width="110" height="50" as="geometry" />
        </mxCell>
        <mxCell id="-mqdKeCDxTKGUfRNACRo-10" value="" style="endArrow=none;html=1;rounded=0;entryX=0;entryY=0;entryDx=0;entryDy=0;exitX=0.5;exitY=1;exitDx=0;exitDy=0;" parent="1" source="-mqdKeCDxTKGUfRNACRo-11" target="D_9kCcDNiqpMiPCQ59RG-3" edge="1">
          <mxGeometry width="50" height="50" relative="1" as="geometry">
            <mxPoint x="1115" y="-60" as="sourcePoint" />
            <mxPoint x="1075" y="-75" as="targetPoint" />
          </mxGeometry>
        </mxCell>
        <mxCell id="-mqdKeCDxTKGUfRNACRo-11" value="Naam" style="ellipse;whiteSpace=wrap;html=1;" parent="1" vertex="1">
          <mxGeometry x="995" y="-100" width="110" height="50" as="geometry" />
        </mxCell>
        <mxCell id="vv0aLHw61eRsqpz4sepN-1" value="" style="endArrow=none;html=1;rounded=0;entryX=0;entryY=0.5;entryDx=0;entryDy=0;exitX=1;exitY=0.5;exitDx=0;exitDy=0;" edge="1" parent="1" source="vv0aLHw61eRsqpz4sepN-2" target="D_9kCcDNiqpMiPCQ59RG-3">
          <mxGeometry width="50" height="50" relative="1" as="geometry">
            <mxPoint x="1055" y="20" as="sourcePoint" />
            <mxPoint x="1035" y="60" as="targetPoint" />
          </mxGeometry>
        </mxCell>
        <mxCell id="vv0aLHw61eRsqpz4sepN-2" value="Id" style="ellipse;whiteSpace=wrap;html=1;" vertex="1" parent="1">
          <mxGeometry x="955" y="-20" width="110" height="50" as="geometry" />
        </mxCell>
        <mxCell id="vv0aLHw61eRsqpz4sepN-3" value="leverancier" style="rounded=0;whiteSpace=wrap;html=1;fillColor=#dae8fc;strokeColor=#6c8ebf;" vertex="1" parent="1">
          <mxGeometry x="420" y="230" width="120" height="60" as="geometry" />
        </mxCell>
        <mxCell id="vv0aLHw61eRsqpz4sepN-4" value="Naam" style="ellipse;whiteSpace=wrap;html=1;rounded=0;" vertex="1" parent="1">
          <mxGeometry x="430" y="130" width="110" height="50" as="geometry" />
        </mxCell>
        <mxCell id="vv0aLHw61eRsqpz4sepN-6" value="" style="endArrow=none;html=1;rounded=0;entryX=0.5;entryY=1;entryDx=0;entryDy=0;exitX=0.5;exitY=0;exitDx=0;exitDy=0;" edge="1" parent="1" target="vv0aLHw61eRsqpz4sepN-4">
          <mxGeometry width="50" height="50" relative="1" as="geometry">
            <mxPoint x="480" y="230" as="sourcePoint" />
            <mxPoint x="487.5" y="160" as="targetPoint" />
          </mxGeometry>
        </mxCell>
        <mxCell id="vv0aLHw61eRsqpz4sepN-7" value="Locatie" style="ellipse;whiteSpace=wrap;html=1;rounded=0;" vertex="1" parent="1">
          <mxGeometry x="320" y="160" width="110" height="50" as="geometry" />
        </mxCell>
        <mxCell id="vv0aLHw61eRsqpz4sepN-8" value="" style="endArrow=none;html=1;rounded=0;entryX=0.5;entryY=1;entryDx=0;entryDy=0;exitX=0.5;exitY=0;exitDx=0;exitDy=0;" edge="1" parent="1" target="vv0aLHw61eRsqpz4sepN-7">
          <mxGeometry width="50" height="50" relative="1" as="geometry">
            <mxPoint x="420" y="230" as="sourcePoint" />
            <mxPoint x="427.5" y="160" as="targetPoint" />
          </mxGeometry>
        </mxCell>
        <mxCell id="vv0aLHw61eRsqpz4sepN-9" value="TelNummer" style="ellipse;whiteSpace=wrap;html=1;rounded=0;" vertex="1" parent="1">
          <mxGeometry x="280" y="230" width="110" height="50" as="geometry" />
        </mxCell>
        <mxCell id="vv0aLHw61eRsqpz4sepN-11" value="" style="endArrow=none;html=1;rounded=0;entryX=1;entryY=0.5;entryDx=0;entryDy=0;exitX=0;exitY=0.5;exitDx=0;exitDy=0;" edge="1" parent="1" source="vv0aLHw61eRsqpz4sepN-3" target="vv0aLHw61eRsqpz4sepN-9">
          <mxGeometry width="50" height="50" relative="1" as="geometry">
            <mxPoint x="430" y="240" as="sourcePoint" />
            <mxPoint x="380" y="205" as="targetPoint" />
            <Array as="points" />
          </mxGeometry>
        </mxCell>
        <mxCell id="vv0aLHw61eRsqpz4sepN-15" value="levert" style="rhombus;whiteSpace=wrap;html=1;rounded=0;" vertex="1" parent="1">
          <mxGeometry x="576.56" y="220" width="80" height="80" as="geometry" />
        </mxCell>
        <mxCell id="vv0aLHw61eRsqpz4sepN-16" value="" style="endArrow=none;html=1;rounded=0;exitX=1;exitY=0.5;exitDx=0;exitDy=0;" edge="1" parent="1" source="vv0aLHw61eRsqpz4sepN-3" target="vv0aLHw61eRsqpz4sepN-15">
          <mxGeometry width="50" height="50" relative="1" as="geometry">
            <mxPoint x="540" y="260" as="sourcePoint" />
            <mxPoint x="680" y="260" as="targetPoint" />
          </mxGeometry>
        </mxCell>
        <mxCell id="vv0aLHw61eRsqpz4sepN-17" value="" style="endArrow=none;html=1;rounded=0;exitX=1;exitY=0.5;exitDx=0;exitDy=0;entryX=0;entryY=0.5;entryDx=0;entryDy=0;" edge="1" parent="1" source="vv0aLHw61eRsqpz4sepN-15" target="D_9kCcDNiqpMiPCQ59RG-1">
          <mxGeometry width="50" height="50" relative="1" as="geometry">
            <mxPoint x="730" y="330" as="sourcePoint" />
            <mxPoint x="780" y="280" as="targetPoint" />
          </mxGeometry>
        </mxCell>
        <mxCell id="vv0aLHw61eRsqpz4sepN-20" value="bevat" style="rhombus;whiteSpace=wrap;html=1;rounded=0;" vertex="1" parent="1">
          <mxGeometry x="970" y="220" width="80" height="80" as="geometry" />
        </mxCell>
        <mxCell id="vv0aLHw61eRsqpz4sepN-21" value="" style="endArrow=none;html=1;rounded=0;exitX=1;exitY=0.5;exitDx=0;exitDy=0;" edge="1" parent="1" target="vv0aLHw61eRsqpz4sepN-20">
          <mxGeometry width="50" height="50" relative="1" as="geometry">
            <mxPoint x="910" y="260" as="sourcePoint" />
            <mxPoint x="1050" y="260" as="targetPoint" />
          </mxGeometry>
        </mxCell>
        <mxCell id="vv0aLHw61eRsqpz4sepN-22" value="" style="endArrow=none;html=1;rounded=0;entryX=0;entryY=0.5;entryDx=0;entryDy=0;exitX=1;exitY=0.5;exitDx=0;exitDy=0;" edge="1" parent="1" source="vv0aLHw61eRsqpz4sepN-20" target="D_9kCcDNiqpMiPCQ59RG-7">
          <mxGeometry width="50" height="50" relative="1" as="geometry">
            <mxPoint x="1050" y="365" as="sourcePoint" />
            <mxPoint x="1100" y="315" as="targetPoint" />
          </mxGeometry>
        </mxCell>
        <mxCell id="vv0aLHw61eRsqpz4sepN-23" value="" style="endArrow=none;html=1;rounded=0;exitX=0.5;exitY=0;exitDx=0;exitDy=0;entryX=0.5;entryY=1;entryDx=0;entryDy=0;" edge="1" parent="1" source="vv0aLHw61eRsqpz4sepN-24" target="D_9kCcDNiqpMiPCQ59RG-3">
          <mxGeometry width="50" height="50" relative="1" as="geometry">
            <mxPoint x="1160" y="65" as="sourcePoint" />
            <mxPoint x="1230" y="110" as="targetPoint" />
          </mxGeometry>
        </mxCell>
        <mxCell id="vv0aLHw61eRsqpz4sepN-24" value="kiest" style="rhombus;whiteSpace=wrap;html=1;" vertex="1" parent="1">
          <mxGeometry x="1120" y="70" width="80" height="80" as="geometry" />
        </mxCell>
        <mxCell id="vv0aLHw61eRsqpz4sepN-25" value="" style="endArrow=none;html=1;rounded=0;exitX=0.5;exitY=0;exitDx=0;exitDy=0;entryX=0.5;entryY=1;entryDx=0;entryDy=0;" edge="1" parent="1" target="vv0aLHw61eRsqpz4sepN-24" source="D_9kCcDNiqpMiPCQ59RG-7">
          <mxGeometry width="50" height="50" relative="1" as="geometry">
            <mxPoint x="995" y="180" as="sourcePoint" />
            <mxPoint x="1075" y="180" as="targetPoint" />
          </mxGeometry>
        </mxCell>
        <mxCell id="vv0aLHw61eRsqpz4sepN-27" value="" style="endArrow=none;html=1;rounded=0;entryX=1;entryY=1;entryDx=0;entryDy=0;" edge="1" parent="1" target="D_9kCcDNiqpMiPCQ59RG-7">
          <mxGeometry width="50" height="50" relative="1" as="geometry">
            <mxPoint x="1250" y="320" as="sourcePoint" />
            <mxPoint x="1230" y="340" as="targetPoint" />
          </mxGeometry>
        </mxCell>
        <mxCell id="vv0aLHw61eRsqpz4sepN-28" value="Id" style="ellipse;whiteSpace=wrap;html=1;" vertex="1" parent="1">
          <mxGeometry x="1240" y="310" width="110" height="50" as="geometry" />
        </mxCell>
        <mxCell id="vv0aLHw61eRsqpz4sepN-31" value="" style="endArrow=none;html=1;rounded=0;" edge="1" parent="1" target="vv0aLHw61eRsqpz4sepN-32">
          <mxGeometry width="50" height="50" relative="1" as="geometry">
            <mxPoint x="1215" y="-20" as="sourcePoint" />
            <mxPoint x="1265" y="-70" as="targetPoint" />
          </mxGeometry>
        </mxCell>
        <mxCell id="vv0aLHw61eRsqpz4sepN-32" value="Email" style="ellipse;whiteSpace=wrap;html=1;" vertex="1" parent="1">
          <mxGeometry x="1220" y="-80" width="105" height="50" as="geometry" />
        </mxCell>
        <mxCell id="vv0aLHw61eRsqpz4sepN-33" value="" style="endArrow=none;html=1;rounded=0;entryX=0;entryY=0.5;entryDx=0;entryDy=0;exitX=1;exitY=0.5;exitDx=0;exitDy=0;" edge="1" parent="1" target="vv0aLHw61eRsqpz4sepN-34" source="D_9kCcDNiqpMiPCQ59RG-3">
          <mxGeometry width="50" height="50" relative="1" as="geometry">
            <mxPoint x="1240" y="40" as="sourcePoint" />
            <mxPoint x="1290" y="-10" as="targetPoint" />
          </mxGeometry>
        </mxCell>
        <mxCell id="vv0aLHw61eRsqpz4sepN-34" value="adress" style="ellipse;whiteSpace=wrap;html=1;" vertex="1" parent="1">
          <mxGeometry x="1245" y="-10" width="105" height="40" as="geometry" />
        </mxCell>
        <mxCell id="vv0aLHw61eRsqpz4sepN-35" value="" style="endArrow=none;html=1;rounded=0;entryX=0;entryY=0.5;entryDx=0;entryDy=0;" edge="1" parent="1" target="vv0aLHw61eRsqpz4sepN-24">
          <mxGeometry width="50" height="50" relative="1" as="geometry">
            <mxPoint x="790" as="sourcePoint" />
            <mxPoint x="915" y="150" as="targetPoint" />
            <Array as="points">
              <mxPoint x="790" y="110" />
            </Array>
          </mxGeometry>
        </mxCell>
        <mxCell id="vv0aLHw61eRsqpz4sepN-36" value="bezorg" style="rounded=0;whiteSpace=wrap;html=1;fillColor=#dae8fc;strokeColor=#6c8ebf;" vertex="1" parent="1">
          <mxGeometry x="730" y="-20" width="120" height="60" as="geometry" />
        </mxCell>
        <mxCell id="vv0aLHw61eRsqpz4sepN-37" value="" style="endArrow=none;html=1;rounded=0;" edge="1" parent="1" target="vv0aLHw61eRsqpz4sepN-38">
          <mxGeometry width="50" height="50" relative="1" as="geometry">
            <mxPoint x="800" y="-20" as="sourcePoint" />
            <mxPoint x="800" y="-70" as="targetPoint" />
          </mxGeometry>
        </mxCell>
        <mxCell id="vv0aLHw61eRsqpz4sepN-38" value="bezorg_Datum" style="ellipse;whiteSpace=wrap;html=1;" vertex="1" parent="1">
          <mxGeometry x="780" y="-100" width="110" height="50" as="geometry" />
        </mxCell>
        <mxCell id="vv0aLHw61eRsqpz4sepN-39" value="" style="endArrow=none;html=1;rounded=0;exitX=0.25;exitY=0;exitDx=0;exitDy=0;" edge="1" parent="1" target="vv0aLHw61eRsqpz4sepN-40" source="vv0aLHw61eRsqpz4sepN-36">
          <mxGeometry width="50" height="50" relative="1" as="geometry">
            <mxPoint x="721.56" y="-20" as="sourcePoint" />
            <mxPoint x="666.56" y="-70" as="targetPoint" />
          </mxGeometry>
        </mxCell>
        <mxCell id="vv0aLHw61eRsqpz4sepN-40" value="Id" style="ellipse;whiteSpace=wrap;html=1;" vertex="1" parent="1">
          <mxGeometry x="646.56" y="-100" width="110" height="50" as="geometry" />
        </mxCell>
        <mxCell id="vv0aLHw61eRsqpz4sepN-41" value="" style="endArrow=none;html=1;rounded=0;exitX=0;exitY=0.25;exitDx=0;exitDy=0;" edge="1" parent="1" target="vv0aLHw61eRsqpz4sepN-42" source="vv0aLHw61eRsqpz4sepN-36">
          <mxGeometry width="50" height="50" relative="1" as="geometry">
            <mxPoint x="730" as="sourcePoint" />
            <mxPoint x="615" y="-20" as="targetPoint" />
          </mxGeometry>
        </mxCell>
        <mxCell id="vv0aLHw61eRsqpz4sepN-42" value="type" style="ellipse;whiteSpace=wrap;html=1;" vertex="1" parent="1">
          <mxGeometry x="595" y="-40" width="110" height="50" as="geometry" />
        </mxCell>
        <mxCell id="vv0aLHw61eRsqpz4sepN-43" value="" style="endArrow=none;html=1;rounded=0;" edge="1" parent="1" target="vv0aLHw61eRsqpz4sepN-44">
          <mxGeometry width="50" height="50" relative="1" as="geometry">
            <mxPoint x="1349.25" y="5" as="sourcePoint" />
            <mxPoint x="1399.25" y="-20" as="targetPoint" />
          </mxGeometry>
        </mxCell>
        <mxCell id="vv0aLHw61eRsqpz4sepN-44" value="postcode" style="ellipse;whiteSpace=wrap;html=1;" vertex="1" parent="1">
          <mxGeometry x="1369.25" y="-60" width="100" height="50" as="geometry" />
        </mxCell>
        <mxCell id="vv0aLHw61eRsqpz4sepN-45" value="" style="endArrow=none;html=1;rounded=0;exitX=1;exitY=0.5;exitDx=0;exitDy=0;" edge="1" parent="1" target="vv0aLHw61eRsqpz4sepN-46" source="vv0aLHw61eRsqpz4sepN-34">
          <mxGeometry width="50" height="50" relative="1" as="geometry">
            <mxPoint x="1354.25" y="12.5" as="sourcePoint" />
            <mxPoint x="1404.25" y="37.5" as="targetPoint" />
          </mxGeometry>
        </mxCell>
        <mxCell id="vv0aLHw61eRsqpz4sepN-46" value="straatNaam" style="ellipse;whiteSpace=wrap;html=1;" vertex="1" parent="1">
          <mxGeometry x="1369.25" width="100" height="50" as="geometry" />
        </mxCell>
        <mxCell id="vv0aLHw61eRsqpz4sepN-47" value="" style="endArrow=none;html=1;rounded=0;exitX=1;exitY=1;exitDx=0;exitDy=0;" edge="1" parent="1" target="vv0aLHw61eRsqpz4sepN-48" source="vv0aLHw61eRsqpz4sepN-34">
          <mxGeometry width="50" height="50" relative="1" as="geometry">
            <mxPoint x="1340.0003334506528" y="28.23014671828696" as="sourcePoint" />
            <mxPoint x="1409.25" y="100" as="targetPoint" />
          </mxGeometry>
        </mxCell>
        <mxCell id="vv0aLHw61eRsqpz4sepN-48" value="huisnummer" style="ellipse;whiteSpace=wrap;html=1;" vertex="1" parent="1">
          <mxGeometry x="1350" y="60" width="100" height="50" as="geometry" />
        </mxCell>
        <mxCell id="vv0aLHw61eRsqpz4sepN-49" value="" style="endArrow=none;html=1;rounded=0;exitX=0.273;exitY=0.04;exitDx=0;exitDy=0;exitPerimeter=0;" edge="1" parent="1" target="vv0aLHw61eRsqpz4sepN-50" source="-mqdKeCDxTKGUfRNACRo-11">
          <mxGeometry width="50" height="50" relative="1" as="geometry">
            <mxPoint x="1060" y="-100" as="sourcePoint" />
            <mxPoint x="1110" y="-125" as="targetPoint" />
          </mxGeometry>
        </mxCell>
        <mxCell id="vv0aLHw61eRsqpz4sepN-50" value="voornaam" style="ellipse;whiteSpace=wrap;html=1;" vertex="1" parent="1">
          <mxGeometry x="1010" y="-180" width="100" height="50" as="geometry" />
        </mxCell>
        <mxCell id="vv0aLHw61eRsqpz4sepN-51" value="" style="endArrow=none;html=1;rounded=0;exitX=0;exitY=0;exitDx=0;exitDy=0;" edge="1" parent="1" target="vv0aLHw61eRsqpz4sepN-52" source="-mqdKeCDxTKGUfRNACRo-11">
          <mxGeometry width="50" height="50" relative="1" as="geometry">
            <mxPoint x="950" y="-110" as="sourcePoint" />
            <mxPoint x="1000" y="-135" as="targetPoint" />
          </mxGeometry>
        </mxCell>
        <mxCell id="vv0aLHw61eRsqpz4sepN-52" value="achternaam" style="ellipse;whiteSpace=wrap;html=1;" vertex="1" parent="1">
          <mxGeometry x="900" y="-160" width="100" height="50" as="geometry" />
        </mxCell>
      </root>
    </mxGraphModel>
  </diagram>
</mxfile>
